<svg width="1600" height="800" viewBox="0 0 1600 800" fill="none" xmlns="http://www.w3.org/2000/svg">
  <rect width="1600" height="800" fill="#150A12"/>
  <rect x="88" y="88" width="1424" height="624" rx="32" fill="#24101D"/>
  <rect x="176" y="164" width="170" height="392" rx="20" fill="#3F1D2E"/>
  <rect x="382" y="128" width="220" height="428" rx="20" fill="#2C1321"/>
  <rect x="636" y="188" width="160" height="368" rx="20" fill="#451B31"/>
  <rect x="826" y="132" width="250" height="424" rx="20" fill="#2A0F1E"/>
  <rect x="1112" y="170" width="120" height="386" rx="20" fill="#471D33"/>
  <rect x="1264" y="120" width="164" height="436" rx="20" fill="#2C1321"/>
  <rect x="204" y="228" width="114" height="22" rx="11" fill="#FB7185"/>
  <rect x="420" y="196" width="144" height="22" rx="11" fill="#F59E0B"/>
  <rect x="670" y="256" width="92" height="22" rx="11" fill="#34D399"/>
  <rect x="870" y="204" width="162" height="22" rx="11" fill="#F43F5E"/>
  <rect x="1298" y="196" width="96" height="22" rx="11" fill="#22D3EE"/>
  <circle cx="1140" cy="260" r="26" fill="#FDE68A"/>
  <circle cx="1188" cy="260" r="26" fill="#FCA5A5"/>
  <circle cx="1236" cy="260" r="26" fill="#A7F3D0"/>
  <text x="128" y="652" fill="#FFF7ED" font-family="'Plus Jakarta Sans', sans-serif" font-size="44" font-weight="700">Omoide Yokocho + Golden Gai</text>
  <text x="128" y="708" fill="#FBCFE8" font-family="'Space Mono', monospace" font-size="24" letter-spacing="3">lanterne • yakitori • micro-bar fino a tardi</text>
</svg>
